<svg width="571" height="358" viewBox="0 0 571 358" fill="none" xmlns="http://www.w3.org/2000/svg">
<path d="M137.258 180.42C137.258 200.054 141.125 219.496 148.639 237.636C156.153 255.776 167.166 272.258 181.049 286.142C194.933 300.025 211.415 311.038 229.555 318.552C247.695 326.066 267.137 329.933 286.771 329.933C306.406 329.933 325.848 326.066 343.988 318.552C362.128 311.038 378.61 300.025 392.494 286.142C406.377 272.258 417.39 255.776 424.904 237.636C432.418 219.496 436.285 200.054 436.285 180.42C436.285 160.785 432.418 141.343 424.904 123.203C417.39 105.063 406.377 88.5811 392.494 74.6974C378.61 60.8138 362.128 49.8007 343.988 42.2869C325.848 34.7732 306.406 30.9059 286.771 30.9059C267.137 30.9059 247.695 34.7732 229.555 42.2869C211.415 49.8007 194.933 60.8138 181.049 74.6974C167.166 88.5811 156.153 105.063 148.639 123.203C141.125 141.343 137.258 160.785 137.258 180.42Z" fill="#44C0C6"/>
<path d="M286.771 332.988C266.188 332.988 246.191 328.946 227.367 320.984C209.191 313.3 192.866 302.283 178.856 288.273C164.846 274.263 153.829 257.938 146.145 239.762C138.184 220.938 134.141 200.972 134.141 180.358C134.141 159.744 138.184 139.778 146.145 120.953C153.829 102.777 164.846 86.4527 178.856 72.4425C192.866 58.4324 209.191 47.4156 227.367 39.7316C246.191 31.7699 266.157 27.7273 286.771 27.7273C307.386 27.7273 327.352 31.8625 346.176 39.8242C364.352 47.5082 380.677 58.5249 394.687 72.5351C408.697 86.5453 419.714 102.87 427.398 121.046C435.359 139.87 439.402 159.836 439.402 180.45C439.402 201.064 435.359 221.03 427.398 239.855C419.714 258.031 408.697 274.355 394.687 288.366C380.677 302.376 364.352 313.393 346.176 321.076C327.352 328.976 307.386 332.988 286.771 332.988ZM286.771 33.9917C266.991 33.9917 247.827 37.8492 229.774 45.5023C212.339 52.8777 196.693 63.4316 183.238 76.8863C169.784 90.341 159.23 105.987 151.854 123.422C144.232 141.475 140.344 160.639 140.344 180.419C140.344 200.2 144.201 219.364 151.854 237.417C159.23 254.852 169.784 270.498 183.238 283.953C196.693 297.407 212.339 307.961 229.774 315.337C247.827 322.959 266.991 326.847 286.771 326.847C306.552 326.847 325.716 322.99 343.769 315.337C361.204 307.961 376.85 297.407 390.305 283.953C403.759 270.498 414.313 254.852 421.689 237.417C429.311 219.364 433.199 200.2 433.199 180.419C433.199 160.639 429.342 141.475 421.689 123.422C414.313 105.987 403.759 90.341 390.305 76.8863C376.85 63.4316 361.204 52.8777 343.769 45.5023C325.716 37.88 306.552 33.9917 286.771 33.9917Z" fill="black"/>
<path d="M290.937 31.1218C272.576 52.8777 255.943 81.5152 295.597 81.5152C359.6 81.5152 342.936 128.668 271.28 132.032C199.594 135.396 219.807 185.943 260.232 190.973C285.105 194.09 293.993 206.743 297.202 218.778V219.241C297.202 225.844 297.85 232.14 298.992 237.972V238.096C298.992 238.836 299.146 239.515 299.424 240.101C303.806 260.006 314.205 263.925 326.364 263.925C342.473 263.925 353.273 230.319 355.218 211.834C358.211 183.814 386.663 183.999 384.873 148.819C384.349 138.667 410.888 138.296 430.607 139.87C413.295 78.3367 357.594 32.9425 290.937 31.1218Z" fill="#60C13D"/>
<path d="M326.333 267.073C315.1 267.073 301.584 264.11 296.43 241.12C296.091 240.256 295.906 239.299 295.875 238.312C294.702 232.078 294.085 225.69 294.085 219.272V219.179C290.073 204.675 278.841 196.436 259.831 194.059C249.061 192.702 239.032 188.227 231.626 181.438C224.281 174.711 220.27 166.317 220.578 158.386C220.794 152.831 223.17 144.87 233.354 138.451C242.118 132.927 254.832 129.748 271.126 128.977C294.733 127.866 309.391 122.219 317.538 117.652C326.981 112.375 332.536 105.74 332.382 99.9383C332.227 92.8715 322.476 84.6321 295.597 84.6321C281.587 84.6321 272.854 81.0524 269.583 74.0165C267.021 68.4926 268.04 61.0864 272.638 52.0446C276.032 45.379 281.402 37.6641 288.592 29.1469C289.209 28.4372 290.104 28.036 291.03 28.0668C307.694 28.5297 324.019 31.6465 339.541 37.3555C354.569 42.8793 368.58 50.7485 381.201 60.7161C393.699 70.5911 404.531 82.2868 413.418 95.4946C422.429 108.918 429.218 123.577 433.569 139.099C433.847 140.056 433.631 141.105 432.983 141.907C432.335 142.679 431.348 143.111 430.36 143.018C408.913 141.29 392.989 142.771 388.762 146.875C387.99 147.616 387.928 148.233 387.928 148.727C388.978 169.403 379.905 179.031 371.882 187.517C365.525 194.275 359.507 200.632 358.273 212.205C357.131 222.975 353.428 236.275 348.861 246.15C342.534 259.852 334.758 267.073 326.333 267.073ZM292.326 34.2387C278.069 51.3657 271.99 64.5426 275.168 71.3934C277.884 77.195 287.759 78.4293 295.597 78.4293C308.867 78.4293 319.421 80.3735 326.95 84.2C334.264 87.934 338.399 93.4579 338.523 99.784C338.708 108.054 332.166 116.541 320.532 123.021C311.798 127.897 296.214 133.945 271.403 135.118C243.939 136.414 227.244 145.178 226.719 158.602C226.472 164.712 229.774 171.378 235.761 176.871C242.241 182.827 251.067 186.746 260.572 187.918C282.235 190.634 295.566 200.756 300.134 218.006C300.195 218.253 300.226 218.531 300.226 218.809V219.272C300.226 225.382 300.812 231.492 301.954 237.417C301.985 237.602 302.016 237.818 302.016 238.003V238.127C302.016 238.404 302.078 238.651 302.17 238.867C302.263 239.052 302.325 239.268 302.386 239.484C306.275 257.229 314.792 260.87 326.333 260.87C334.079 260.87 340.282 250.007 343.275 243.558C348.49 232.263 351.329 219.241 352.132 211.557C353.582 197.917 360.618 190.48 367.376 183.29C375.245 174.957 382.682 167.057 381.757 149.036C381.633 146.567 382.559 144.283 384.441 142.463C387.836 139.191 394.378 137.216 404.5 136.476C411.937 135.92 419.93 136.167 426.348 136.538C422.152 123.206 416.103 110.585 408.265 98.92C399.748 86.2368 389.348 75.004 377.344 65.5301C365.247 55.9637 351.792 48.434 337.35 43.1262C322.939 37.8184 307.787 34.825 292.326 34.2387Z" fill="black"/>
<path d="M166.214 129.229L210.307 103.771" stroke="black" stroke-width="7" stroke-linecap="round" stroke-linejoin="round"/>
<path d="M405.786 128.36L361.693 102.64" stroke="black" stroke-width="7" stroke-linecap="round" stroke-linejoin="round"/>
<path d="M254.4 245.874C270.112 223.137 306.366 191.306 325.684 245.874" stroke="black" stroke-width="7" stroke-linecap="round" stroke-linejoin="round"/>
<circle cx="220.595" cy="175.326" r="33.9791" fill="white" stroke="black" stroke-width="7"/>
<circle cx="220.595" cy="175.326" r="15.7807" fill="black"/>
<circle cx="351.327" cy="175.326" r="33.9791" fill="white" stroke="black" stroke-width="7"/>
<circle cx="351.327" cy="175.326" r="15.7807" fill="black"/>
<g filter="url(#filter0_f_23_25)">
<path d="M180 100C204.891 100 225.92 116.873 232.702 140.021C236.656 139.099 240.772 138.612 245 138.612C248.912 138.612 252.728 139.03 256.408 139.822C265.285 120.995 284.155 108 306 108C331.076 108 352.232 125.125 358.851 148.538C360.387 148.024 361.952 147.576 363.545 147.2C370.579 124.475 391.404 108 416 108C446.376 108 471 133.127 471 164.122C471 190.747 452.831 213.041 428.454 218.799C421.42 241.524 400.596 258 376 258C350.923 258 329.767 240.875 323.148 217.461C317.752 219.266 311.988 220.245 306 220.245C302.088 220.245 298.272 219.827 294.591 219.034C285.715 237.862 266.845 250.857 245 250.857C227.847 250.857 212.528 242.844 202.441 230.286C192.884 246.869 175.217 258 155 258C124.624 258 100 232.873 100 201.878C100 182.17 109.956 164.835 125.015 154.822C125.692 124.427 150.05 100 180 100Z" fill="#747474"/>
</g>
<g filter="url(#filter1_f_23_25)">
<path d="M180 100C204.891 100 225.92 116.873 232.702 140.021C236.656 139.099 240.772 138.612 245 138.612C248.912 138.612 252.728 139.03 256.408 139.822C265.285 120.995 284.155 108 306 108C331.076 108 352.232 125.125 358.851 148.538C360.387 148.024 361.952 147.576 363.545 147.2C370.579 124.475 391.404 108 416 108C446.376 108 471 133.127 471 164.122C471 190.747 452.831 213.041 428.454 218.799C421.42 241.524 400.596 258 376 258C350.923 258 329.767 240.875 323.148 217.461C317.752 219.266 311.988 220.245 306 220.245C302.088 220.245 298.272 219.827 294.591 219.034C285.715 237.862 266.845 250.857 245 250.857C227.847 250.857 212.528 242.844 202.441 230.286C192.884 246.869 175.217 258 155 258C124.624 258 100 232.873 100 201.878C100 182.17 109.956 164.835 125.015 154.822C125.692 124.427 150.05 100 180 100Z" fill="#747474"/>
</g>
<defs>
<filter id="filter0_f_23_25" x="0" y="0" width="571" height="358" filterUnits="userSpaceOnUse" color-interpolation-filters="sRGB">
<feFlood flood-opacity="0" result="BackgroundImageFix"/>
<feBlend mode="normal" in="SourceGraphic" in2="BackgroundImageFix" result="shape"/>
<feGaussianBlur stdDeviation="50" result="effect1_foregroundBlur_23_25"/>
</filter>
<filter id="filter1_f_23_25" x="0" y="0" width="571" height="358" filterUnits="userSpaceOnUse" color-interpolation-filters="sRGB">
<feFlood flood-opacity="0" result="BackgroundImageFix"/>
<feBlend mode="normal" in="SourceGraphic" in2="BackgroundImageFix" result="shape"/>
<feGaussianBlur stdDeviation="50" result="effect1_foregroundBlur_23_25"/>
</filter>
</defs>
</svg>
