<svg width="571" height="432" viewBox="0 0 571 432" fill="none" xmlns="http://www.w3.org/2000/svg">
<path d="M137.258 249.42C137.258 269.054 141.125 288.496 148.639 306.636C156.153 324.776 167.166 341.258 181.049 355.142C194.933 369.025 211.415 380.038 229.555 387.552C247.695 395.066 267.137 398.933 286.771 398.933C306.406 398.933 325.848 395.066 343.988 387.552C362.128 380.038 378.61 369.025 392.494 355.142C406.377 341.258 417.39 324.776 424.904 306.636C432.418 288.496 436.285 269.054 436.285 249.42C436.285 229.785 432.418 210.343 424.904 192.203C417.39 174.063 406.377 157.581 392.494 143.697C378.61 129.814 362.128 118.801 343.988 111.287C325.848 103.773 306.406 99.9059 286.771 99.9059C267.137 99.9059 247.695 103.773 229.555 111.287C211.415 118.801 194.933 129.814 181.049 143.697C167.166 157.581 156.153 174.063 148.639 192.203C141.125 210.343 137.258 229.785 137.258 249.42Z" fill="#44C0C6"/>
<path d="M286.772 401.988C266.188 401.988 246.191 397.946 227.367 389.984C209.191 382.3 192.867 371.283 178.856 357.273C164.846 343.263 153.829 326.938 146.145 308.762C138.184 289.938 134.141 269.972 134.141 249.358C134.141 228.744 138.184 208.778 146.145 189.953C153.829 171.777 164.846 155.453 178.856 141.443C192.867 127.432 209.191 116.416 227.367 108.732C246.191 100.77 266.158 96.7273 286.772 96.7273C307.386 96.7273 327.352 100.862 346.176 108.824C364.352 116.508 380.677 127.525 394.687 141.535C408.697 155.545 419.714 171.87 427.398 190.046C435.359 208.87 439.402 228.836 439.402 249.45C439.402 270.064 435.359 290.03 427.398 308.855C419.714 327.031 408.697 343.355 394.687 357.366C380.677 371.376 364.352 382.393 346.176 390.076C327.352 397.976 307.386 401.988 286.772 401.988ZM286.772 102.992C266.991 102.992 247.827 106.849 229.774 114.502C212.339 121.878 196.693 132.432 183.238 145.886C169.784 159.341 159.23 174.987 151.854 192.422C144.232 210.475 140.344 229.639 140.344 249.419C140.344 269.2 144.201 288.364 151.854 306.417C159.23 323.852 169.784 339.498 183.238 352.953C196.693 366.407 212.339 376.961 229.774 384.337C247.827 391.959 266.991 395.847 286.772 395.847C306.552 395.847 325.716 391.99 343.769 384.337C361.204 376.961 376.85 366.407 390.305 352.953C403.759 339.498 414.313 323.852 421.689 306.417C429.311 288.364 433.199 269.2 433.199 249.419C433.199 229.639 429.342 210.475 421.689 192.422C414.313 174.987 403.759 159.341 390.305 145.886C376.85 132.432 361.204 121.878 343.769 114.502C325.716 106.88 306.552 102.992 286.772 102.992Z" fill="black"/>
<path d="M290.937 100.122C272.576 121.878 255.943 150.515 295.597 150.515C359.6 150.515 342.936 197.668 271.28 201.032C199.594 204.396 219.807 254.943 260.232 259.973C285.105 263.09 293.993 275.743 297.202 287.778V288.241C297.202 294.844 297.85 301.14 298.992 306.972V307.096C298.992 307.836 299.146 308.515 299.424 309.101C303.806 329.006 314.205 332.925 326.364 332.925C342.473 332.925 353.273 299.319 355.218 280.834C358.211 252.814 386.663 252.999 384.873 217.819C384.349 207.667 410.888 207.296 430.607 208.87C413.295 147.337 357.594 101.943 290.937 100.122Z" fill="#60C13D"/>
<path d="M326.333 336.073C315.1 336.073 301.584 333.11 296.43 310.12C296.091 309.256 295.906 308.299 295.875 307.312C294.702 301.078 294.085 294.69 294.085 288.272V288.179C290.073 273.675 278.841 265.436 259.831 263.059C249.061 261.702 239.032 257.227 231.626 250.438C224.281 243.711 220.27 235.317 220.578 227.386C220.794 221.831 223.17 213.87 233.354 207.451C242.118 201.927 254.832 198.748 271.126 197.977C294.733 196.866 309.391 191.219 317.538 186.652C326.981 181.375 332.536 174.74 332.382 168.938C332.227 161.872 322.476 153.632 295.597 153.632C281.587 153.632 272.854 150.052 269.583 143.016C267.021 137.493 268.04 130.086 272.638 121.045C276.032 114.379 281.402 106.664 288.592 98.1469C289.209 97.4372 290.104 97.036 291.03 97.0668C307.694 97.5297 324.019 100.647 339.541 106.356C354.569 111.879 368.58 119.748 381.201 129.716C393.699 139.591 404.531 151.287 413.418 164.495C422.429 177.918 429.218 192.577 433.569 208.099C433.847 209.056 433.631 210.105 432.983 210.907C432.335 211.679 431.348 212.111 430.36 212.018C408.913 210.29 392.989 211.771 388.762 215.875C387.99 216.616 387.928 217.233 387.928 217.727C388.978 238.403 379.905 248.031 371.882 256.517C365.525 263.275 359.507 269.632 358.273 281.205C357.131 291.975 353.428 305.275 348.861 315.15C342.534 328.852 334.758 336.073 326.333 336.073ZM292.326 103.239C278.069 120.366 271.99 133.543 275.168 140.393C277.884 146.195 287.759 147.429 295.597 147.429C308.867 147.429 319.421 149.373 326.95 153.2C334.264 156.934 338.399 162.458 338.523 168.784C338.708 177.054 332.166 185.541 320.532 192.021C311.798 196.897 296.214 202.945 271.403 204.118C243.939 205.414 227.244 214.178 226.719 227.602C226.472 233.712 229.774 240.378 235.761 245.871C242.241 251.827 251.067 255.746 260.572 256.918C282.235 259.634 295.566 269.756 300.134 287.006C300.195 287.253 300.226 287.531 300.226 287.809V288.272C300.226 294.382 300.812 300.492 301.954 306.417C301.985 306.602 302.016 306.818 302.016 307.003V307.127C302.016 307.404 302.078 307.651 302.17 307.867C302.263 308.052 302.325 308.268 302.386 308.484C306.275 326.229 314.792 329.87 326.333 329.87C334.079 329.87 340.282 319.007 343.275 312.558C348.49 301.263 351.329 288.241 352.132 280.557C353.582 266.917 360.618 259.48 367.376 252.29C375.245 243.957 382.682 236.057 381.757 218.036C381.633 215.567 382.559 213.283 384.441 211.463C387.836 208.191 394.378 206.216 404.5 205.476C411.937 204.92 419.93 205.167 426.348 205.538C422.152 192.206 416.103 179.585 408.265 167.92C399.748 155.237 389.348 144.004 377.344 134.53C365.247 124.964 351.792 117.434 337.35 112.126C322.939 106.818 307.787 103.825 292.326 103.239Z" fill="black"/>
<path d="M193.132 185.5L244.047 185.5" stroke="black" stroke-width="7" stroke-linecap="round" stroke-linejoin="round"/>
<path d="M379.591 184.614L328.545 184.386" stroke="black" stroke-width="7" stroke-linecap="round" stroke-linejoin="round"/>
<path d="M365 302C281.101 407.051 239 330 207 302C207 302 257.323 311.056 288.5 311C319.677 310.944 365 302 365 302Z" fill="white" stroke="black" stroke-width="7" stroke-linecap="round" stroke-linejoin="round"/>
<circle cx="220.595" cy="244.326" r="33.9791" fill="white" stroke="black" stroke-width="7"/>
<circle cx="220.595" cy="244.326" r="15.7807" fill="black"/>
<circle cx="351.327" cy="244.326" r="33.9791" fill="white" stroke="black" stroke-width="7"/>
<circle cx="351.327" cy="244.326" r="15.7807" fill="black"/>
<path d="M311.83 55.6055C311.83 76.1719 300.16 84.5996 285.766 84.5996C271.371 84.5996 259.692 76.1719 259.692 55.6055C259.692 35.0391 285.766 1.86523 285.766 1.86523C285.766 1.86523 311.83 35.0391 311.83 55.6055Z" fill="#60C13D"/>
<path d="M285.766 85.5664C277.924 85.5664 271.313 83.125 266.645 78.5059C264.106 75.9961 262.153 72.8418 260.824 69.1406C259.428 65.2441 258.715 60.6836 258.715 55.6055C258.715 50.791 260.112 44.9219 262.856 38.1641C265.033 32.8027 268.071 26.875 271.879 20.5176C278.364 9.72656 284.926 1.34766 284.994 1.25977C285.18 1.02539 285.463 0.888672 285.766 0.888672C286.069 0.888672 286.352 1.02539 286.537 1.25977C286.606 1.34766 293.168 9.72656 299.643 20.5176C303.451 26.8652 306.489 32.8027 308.666 38.1641C311.42 44.9219 312.807 50.791 312.807 55.6055C312.807 60.6836 312.094 65.2441 310.698 69.1406C309.369 72.8418 307.416 75.9961 304.877 78.5059C300.219 83.125 293.608 85.5664 285.766 85.5664ZM285.766 3.4668C283.852 5.98633 278.676 12.998 273.559 21.543C269.799 27.8027 266.811 33.6523 264.672 38.9062C262.016 45.4199 260.678 51.0352 260.678 55.6055C260.678 65.0488 263.149 72.2852 268.022 77.1191C272.309 81.3672 278.451 83.623 285.766 83.623C293.08 83.623 299.223 81.377 303.51 77.1191C308.383 72.2852 310.854 65.0488 310.854 55.6055C310.854 51.0449 309.506 45.4199 306.85 38.8965C304.711 33.6328 301.713 27.7832 297.953 21.5234C292.836 12.9883 287.67 5.98633 285.766 3.4668Z" fill="black"/>
<path d="M285.766 99.3652C285.229 99.3652 284.789 98.9258 284.789 98.3887V21.3672C284.789 20.8301 285.229 20.3906 285.766 20.3906C286.303 20.3906 286.742 20.8301 286.742 21.3672V98.3789C286.742 98.9258 286.303 99.3652 285.766 99.3652Z" fill="black"/>
<path d="M285.766 50.8984C285.502 50.8984 285.229 50.791 285.043 50.5762L271.615 35.6348C271.254 35.2344 271.283 34.6191 271.693 34.2578C272.094 33.8965 272.709 33.9258 273.07 34.3359L286.498 49.2773C286.859 49.6777 286.83 50.293 286.42 50.6543C286.225 50.8203 286 50.8984 285.766 50.8984ZM285.766 76.4062C285.492 76.4062 285.219 76.2891 285.024 76.0645L266.147 53.9062C265.795 53.4961 265.844 52.8809 266.254 52.5293C266.664 52.1777 267.279 52.2266 267.631 52.6367L286.498 74.7949C286.85 75.2051 286.801 75.8203 286.391 76.1719C286.215 76.3281 285.99 76.4062 285.766 76.4062ZM285.766 35.957C285.512 35.957 285.268 35.8594 285.072 35.6738C284.691 35.293 284.691 34.6777 285.072 34.2969L294.174 25.1953C294.555 24.8145 295.17 24.8145 295.551 25.1953C295.932 25.5762 295.932 26.1914 295.551 26.5723L286.449 35.6738C286.264 35.8594 286.01 35.957 285.766 35.957ZM286.645 62.7539C286.381 62.7539 286.107 62.6465 285.922 62.4316C285.561 62.0312 285.6 61.416 286 61.0547L299.262 49.1602C299.662 48.7988 300.277 48.8379 300.639 49.2383C301 49.6387 300.961 50.2539 300.561 50.6152L287.299 62.5C287.113 62.666 286.879 62.7539 286.645 62.7539Z" fill="black"/>
<g opacity="0.25" filter="url(#filter0_f_23_135)">
<path d="M180 174C204.891 174 225.92 190.873 232.702 214.021C236.656 213.099 240.772 212.612 245 212.612C248.912 212.612 252.728 213.03 256.408 213.822C265.285 194.995 284.155 182 306 182C331.076 182 352.232 199.125 358.851 222.538C360.387 222.024 361.952 221.576 363.545 221.2C370.579 198.475 391.404 182 416 182C446.376 182 471 207.127 471 238.122C471 264.747 452.831 287.041 428.454 292.799C421.42 315.524 400.596 332 376 332C350.923 332 329.767 314.875 323.148 291.461C317.752 293.266 311.988 294.245 306 294.245C302.088 294.245 298.272 293.827 294.591 293.034C285.715 311.862 266.845 324.857 245 324.857C227.847 324.857 212.528 316.844 202.441 304.286C192.884 320.869 175.217 332 155 332C124.624 332 100 306.873 100 275.878C100 256.17 109.956 238.835 125.015 228.822C125.692 198.427 150.05 174 180 174Z" fill="#747474"/>
</g>
<defs>
<filter id="filter0_f_23_135" x="0" y="74" width="571" height="358" filterUnits="userSpaceOnUse" color-interpolation-filters="sRGB">
<feFlood flood-opacity="0" result="BackgroundImageFix"/>
<feBlend mode="normal" in="SourceGraphic" in2="BackgroundImageFix" result="shape"/>
<feGaussianBlur stdDeviation="50" result="effect1_foregroundBlur_23_135"/>
</filter>
</defs>
</svg>
